<?xml version="1.0" encoding="UTF-8" standalone="no"?>
<!DOCTYPE svg PUBLIC "-//W3C//DTD SVG 1.1//EN" "http://www.w3.org/Graphics/SVG/1.1/DTD/svg11.dtd">
<svg version="1.1" xmlns="http://www.w3.org/2000/svg" xmlns:xlink="http://www.w3.org/1999/xlink" preserveAspectRatio="xMidYMid meet" viewBox="0 0 640 640" width="640" height="640"><defs><path d="M600 30C600 13.38 586.63 0 570 0C529 0 201 0 160 0C93.75 0 40 53.75 40 120C40 160 40 480 40 520C40 586.25 93.75 640 160 640C201 640 529 640 570 640C586.63 640 600 626.63 600 610C600 608 600 592 600 590C600 580.63 595.63 572.13 588.88 566.63C583.63 547.38 583.63 492.5 588.88 473.25C595.63 467.88 600 459.38 600 450C600 366 600 72 600 30ZM207.5 160C234 160 446 160 472.5 160C476.63 160 480 163.38 480 167.5C480 170 480 190 480 192.5C480 196.63 476.63 200 472.5 200C446 200 234 200 207.5 200C203.38 200 200 196.63 200 192.5C200 190.83 200 182.5 200 167.5C202.25 162.5 204.75 160 207.5 160ZM207.5 240C234 240 446 240 472.5 240C476.63 240 480 243.38 480 247.5C480 250 480 270 480 272.5C480 276.63 476.63 280 472.5 280C446 280 234 280 207.5 280C203.38 280 200 276.63 200 272.5C200 270.83 200 262.5 200 247.5C202.25 242.5 204.75 240 207.5 240ZM160 560C137.88 560 120 542.13 120 520C120 498 138 480 160 480C195.68 480 481.08 480 516.75 480C514.38 501.38 514.38 538.63 516.75 560C445.4 560 195.68 560 160 560Z" id="a1qMNLIR7C"></path></defs><g><g><g><use xlink:href="#a1qMNLIR7C" opacity="1" fill="#a80203" fill-opacity="1"></use><g><use xlink:href="#a1qMNLIR7C" opacity="1" fill-opacity="0" stroke="#000000" stroke-width="1" stroke-opacity="0"></use></g></g></g></g></svg>